<svg width="24" height="16" viewBox="0 0 24 16" fill="none" xmlns="http://www.w3.org/2000/svg">
<path d="M0 12.6766C0 14.2444 1.30331 15.53 2.89272 15.53H21.1073C22.6967 15.53 24 14.2444 24 12.6766V0.353516H0V12.6766ZM17.8649 2.7366C18.9457 2.7366 19.8358 3.61457 19.8358 4.68069C19.8358 5.74681 18.9457 6.62478 17.8649 6.62478C16.7841 6.62478 15.894 5.74681 15.894 4.68069C15.894 3.61457 16.7841 2.7366 17.8649 2.7366ZM11.9841 2.7366C13.0649 2.7366 13.955 3.61457 13.955 4.68069C13.955 5.74681 13.0649 6.62478 11.9841 6.62478C10.9033 6.62478 10.0132 5.74681 10.0132 4.68069C10.0132 3.61457 10.9033 2.7366 11.9841 2.7366ZM11.9841 8.03582C13.0649 8.03582 13.955 8.9138 13.955 9.97991C13.955 11.046 13.0649 11.8926 11.9841 11.8926C10.9033 11.8926 10.0132 11.0147 10.0132 9.94856C10.0132 8.88244 10.9033 8.03582 11.9841 8.03582ZM6.10331 8.03582C7.18411 8.03582 8.07417 8.9138 8.07417 9.97991C8.07417 11.046 7.18411 11.8926 6.10331 11.8926C5.02252 11.8926 4.13245 11.0147 4.13245 9.94856C4.13245 8.88244 5.02252 8.03582 6.10331 8.03582Z" fill="white"/>
</svg>
